<svg width="20" height="22" viewBox="0 0 20 22" fill="none" xmlns="http://www.w3.org/2000/svg">
<path d="M10 0.0986328C15.52 0.0986328 20 4.79987 20 10.5925C20 16.3851 15.52 21.0863 10 21.0863C4.48 21.0863 0 16.3851 0 10.5925C0 4.79987 4.48 0.0986328 10 0.0986328ZM10 2.1974C5.58 2.1974 2 5.95419 2 10.5925C2 15.2307 5.58 18.9875 10 18.9875C14.42 18.9875 18 15.2307 18 10.5925C18 5.95419 14.42 2.1974 10 2.1974ZM10 5.34555C11.82 5.34555 13.413 6.3666 14.288 7.89345L12.574 8.97326C12.3043 8.50129 11.9213 8.11178 11.4634 7.84355C11.0055 7.57531 10.4885 7.43774 9.96412 7.44455C9.43971 7.45136 8.92617 7.60231 8.4747 7.88235C8.02323 8.16238 7.6496 8.56172 7.39107 9.04055C7.13254 9.51938 6.99815 10.061 7.00128 10.6113C7.00442 11.1616 7.14498 11.7015 7.40895 12.177C7.67292 12.6526 8.05107 13.0472 8.5057 13.3215C8.96033 13.5959 9.47556 13.7404 10 13.7406C10.5181 13.741 11.0275 13.6004 11.4785 13.3326C11.9294 13.0648 12.3065 12.679 12.573 12.2127L14.288 13.2915C13.726 14.2764 12.8716 15.0408 11.8559 15.4672C10.8402 15.8937 9.71922 15.9587 8.6649 15.6523C7.61058 15.3459 6.68114 14.6851 6.01914 13.7711C5.35713 12.8571 4.99912 11.7405 5 10.5925C5 7.69616 7.24 5.34555 10 5.34555Z" fill="white"/>
</svg>
