<svg width="64" height="64" viewBox="0 0 64 64" fill="none" xmlns="http://www.w3.org/2000/svg">
<path d="M32 12C18.6667 12 7.28002 20.2933 2.66669 32C7.28002 43.7067 18.6667 52 32 52C45.3334 52 56.72 43.7067 61.3334 32C56.72 20.2933 45.3334 12 32 12ZM32 45.3333C24.64 45.3333 18.6667 39.36 18.6667 32C18.6667 24.64 24.64 18.6667 32 18.6667C39.36 18.6667 45.3334 24.64 45.3334 32C45.3334 39.36 39.36 45.3333 32 45.3333ZM32 24C27.5734 24 24 27.5733 24 32C24 36.4267 27.5734 40 32 40C36.4267 40 40 36.4267 40 32C40 27.5733 36.4267 24 32 24Z" fill="#E5E5E5"/>
</svg>
