<svg width="52" height="21" viewBox="0 0 52 21" fill="none" xmlns="http://www.w3.org/2000/svg">
<path d="M0 1.1189H17V4.1189H2L0 1.1189Z" fill="#F36720"/>
<path d="M2 9.1189H17V12.1189H2V9.1189Z" fill="#F36720"/>
<path d="M2 17.1189H17V20.1189H0L2 17.1189Z" fill="#F36720"/>
<rect x="19" y="1.1189" width="3" height="19" fill="#F36720"/>
<path d="M31.5 1.1189L34.0001 1.11892L22 20.1189L20.2079 19.4618L31.5 1.1189Z" fill="#F36720"/>
<rect x="36" y="1.1189" width="3" height="19" fill="#F36720"/>
<rect x="39" y="1.1189" width="13" height="3" fill="#F36720"/>
<rect x="39" y="17.1189" width="13" height="3" fill="#F36720"/>
<rect x="49" y="13.1189" width="3" height="4" fill="#F36720"/>
<path d="M44 11.1189H52V13.1189H42L44 11.1189Z" fill="#F36720"/>
<path d="M49 4.1189H52V7.1189L50.5 5.6189L49 4.1189Z" fill="#F36720"/>
</svg>
